<svg xmlns="http://www.w3.org/2000/svg" width="512" height="512" viewBox="0 0 512 512" fill="none"><metadata><rdf:RDF xmlns:rdf="http://www.w3.org/1999/02/22-rdf-syntax-ns#" xmlns:dc="http://purl.org/dc/elements/1.1/"><rdf:Description><dc:creator>RealFaviconGenerator</dc:creator><dc:source>https://realfavicongenerator.net</dc:source></rdf:Description></rdf:RDF></metadata><g clip-path="url(#clip0_1_105)">
<path d="M303.02 52.2448H208.98C122.417 52.2448 52.2448 122.417 52.2448 208.98V303.02C52.2448 389.583 122.417 459.756 208.98 459.756H303.02C389.583 459.756 459.756 389.583 459.756 303.02V208.98C459.756 122.417 389.583 52.2448 303.02 52.2448ZM208.98 0C93.5634 0 0 93.5634 0 208.98V303.02C0 418.437 93.5634 512 208.98 512H303.02C418.437 512 512 418.437 512 303.02V208.98C512 93.5634 418.437 0 303.02 0H208.98Z" fill="white"></path>
<path d="M256 329.143C296.396 329.143 329.143 296.396 329.143 256C329.143 215.604 296.396 182.857 256 182.857C215.604 182.857 182.857 215.604 182.857 256C182.857 296.396 215.604 329.143 256 329.143Z" fill="#0080FD"></path>
<path d="M402.286 274.286V384H292.571" fill="#0080FD"></path>
</g><defs>
<clipPath id="clip0_1_105">
<rect width="512" height="512" fill="white"></rect>
</clipPath>
</defs></svg>